<?xml version="1.0" encoding="UTF-8" standalone="no"?>
<!DOCTYPE svg PUBLIC "-//W3C//DTD SVG 1.1//EN"
  "http://www.w3.org/Graphics/SVG/1.1/DTD/svg11.dtd">
<svg width="128" height="128" version="1.1"
  xmlns="http://www.w3.org/2000/svg">
<!--
 Copyright © 2006-2015 Dr. Tobias Quathamer <t.quathamer@mailbox.org>

 This file is part of the Drupal Weather module.

 Weather is free software; you can redistribute it and/or modify
 it under the terms of the GNU General Public License as published by
 the Free Software Foundation; either version 2 of the License, or
 (at your option) any later version.

 Weather is distributed in the hope that it will be useful,
 but WITHOUT ANY WARRANTY; without even the implied warranty of
 MERCHANTABILITY or FITNESS FOR A PARTICULAR PURPOSE.  See the
 GNU General Public License for more details.

 You should have received a copy of the GNU General Public License
 along with Weather; if not, write to the Free Software
 Foundation, Inc., 51 Franklin St, Fifth Floor, Boston, MA  02110-1301  USA
-->

  <!-- white background -->	
  <rect width="100%" height="100%" fill="white" />

  <!-- cloud colors -->
  <linearGradient id="grey-cloud" x2="0" y2="100%">
    <stop offset="0" stop-color="#cccccc" />
    <stop offset="1" stop-color="#aabbcc" />
  </linearGradient>

  <!-- cloud -->
  <g>
    <path
      d="m 14,58 c -7,-35 30,-33 49,-13 38,-28 77,16 46,37 -22,14 -81,7 -94,0 -10,-6 -7,-21 -1,-24 z"
      fill="url(#grey-cloud)" stroke="black" stroke-width="1" />
    <path
      d="m 63,45 c -4.75,3.5 -6,8 -6,8"
      fill="none" stroke="black" stroke-width="1" />
    <path
      d="m 32,56 c 11,-16 41,5 45,11"
      fill="none" stroke="black" stroke-width="1" />
    <path
      d="m 14,58 c 12,-6 20,-2 28,2"
      fill="none" stroke="black" stroke-width="1" />
  </g>

  <!-- raindrop -->
  <linearGradient id="raindrop" x2="0" y2="100%">
    <stop offset="0" stop-color="#9ad4ff" />
    <stop offset="1" stop-color="#3ab6ff" />
  </linearGradient>
  <path
    d="m 64,95 c -3,10 -8,12 -8,20 0,12 16,12 16,0 0,-8 -5,-10 -8,-20"
    fill="url(#raindrop)" stroke="black" stroke-width="1" />
  <path
    d="m 96,95 c -3,10 -8,12 -8,20 0,12 16,12 16,0 0,-8 -5,-10 -8,-20"
    fill="url(#raindrop)" stroke="black" stroke-width="1" />
</svg>
